nColumns=19
nRows=40
DataType=double
version=3
OpenSimVersion=4.1
endheader
time	ground_force_calcn_l_vx	ground_force_calcn_l_vy	ground_force_calcn_l_vz	ground_force_calcn_l_px	ground_force_calcn_l_py	ground_force_calcn_l_pz	ground_force_calcn_l_mx	ground_force_calcn_l_my	ground_force_calcn_l_mz	ground_force_calcn_r_vx	ground_force_calcn_r_vy	ground_force_calcn_r_vz	ground_force_calcn_r_px	ground_force_calcn_r_py	ground_force_calcn_r_pz	ground_force_calcn_r_mx	ground_force_calcn_r_my	ground_force_calcn_r_mz
0.19175	91.7486	1061.1	61.1468	0.0145545	0	-0.0867362	0.589642	6.81938	0.392973	0	0	0	0	0	0	0	0	0
0.192749	93.0457	1053.2	60.4602	0.0143664	0	-0.0866722	0.595949	6.74565	0.387242	0	0	0	0	0	0	0	0	0
0.193747	94.3071	1045.18	59.7696	0.0141871	0	-0.0866116	0.601942	6.67114	0.381497	0	0	0	0	0	0	0	0	0
0.194746	95.5322	1037.03	59.0752	0.0140169	0	-0.0865546	0.607619	6.59587	0.37574	0	0	0	0	0	0	0	0	0
0.195745	96.7204	1028.76	58.3774	0.0138559	0	-0.0865015	0.612977	6.51989	0.369974	0	0	0	0	0	0	0	0	0
0.196743	97.8712	1020.37	57.6765	0.0137042	0	-0.0864522	0.618013	6.44321	0.364201	0	0	0	0	0	0	0	0	0
0.197742	98.984	1011.87	56.9726	0.0135618	0	-0.086407	0.622727	6.36589	0.358426	0	0	0	0	0	0	0	0	0
0.198741	100.058	1003.26	56.2662	0.0134289	0	-0.086366	0.627116	6.28796	0.352649	0	0	0	0	0	0	0	0	0
0.199739	101.094	994.547	55.5575	0.0133056	0	-0.0863294	0.631179	6.20944	0.346873	0	0	0	0	0	0	0	0	0
0.200738	102.09	985.725	54.8467	0.013192	0	-0.0862973	0.634913	6.13038	0.341101	0	0	0	0	0	0	0	0	0
0.201737	103.046	976.803	54.1342	0.0130881	0	-0.08627	0.638319	6.05081	0.335335	0	0	0	0	0	0	0	0	0
0.202736	103.962	967.784	53.4203	0.0129941	0	-0.0862475	0.641396	5.97076	0.329577	0	0	0	0	0	0	0	0	0
0.203734	104.837	958.671	52.7051	0.01291	0	-0.0862301	0.644142	5.89027	0.323831	0	0	0	0	0	0	0	0	0
0.204733	105.672	949.467	51.9889	0.0128359	0	-0.086218	0.646558	5.80937	0.318097	0	0	0	0	0	0	0	0	0
0.205732	106.465	940.177	51.2721	0.0127718	0	-0.0862112	0.648644	5.7281	0.312379	0	0	0	0	0	0	0	0	0
0.20673	107.216	930.804	50.5548	0.0127178	0	-0.08621	0.6504	5.6465	0.306679	0	0	0	0	0	0	0	0	0
0.207729	107.925	921.35	49.8374	0.0126739	0	-0.0862146	0.651826	5.56459	0.300998	0	0	0	0	0	0	0	0	0
0.208728	108.593	911.821	49.1201	0.0126402	0	-0.0862251	0.652924	5.48242	0.29534	0	0	0	0	0	0	0	0	0
0.209726	109.217	902.218	48.4032	0.0126168	0	-0.0862418	0.653695	5.40001	0.289706	0	0	0	0	0	0	0	0	0
0.210725	109.8	892.546	47.6868	0.0126036	0	-0.0862647	0.65414	5.31741	0.284098	0	0	0	0	0	0	0	0	0
0.211724	110.339	882.809	46.9713	0.0126006	0	-0.0862943	0.654261	5.23466	0.278518	0	0	0	0	0	0	0	0	0
0.212722	110.836	873.008	46.2568	0.012608	0	-0.0863305	0.65406	5.15177	0.27297	0	0	0	0	0	0	0	0	0
0.213721	111.289	863.149	45.5437	0.0126257	0	-0.0863736	0.65354	5.0688	0.267453	0	0	0	0	0	0	0	0	0
0.21472	111.699	853.235	44.8321	0.0126537	0	-0.0864239	0.652702	4.98577	0.261971	0	0	0	0	0	0	0	0	0
0.215718	112.066	843.268	44.1223	0.0126921	0	-0.0864815	0.651549	4.90273	0.256525	0	0	0	0	0	0	0	0	0
0.216717	112.39	833.254	43.4146	0.0127408	0	-0.0865465	0.650085	4.81969	0.251118	0	0	0	0	0	0	0	0	0
0.217716	112.671	823.194	42.709	0.0127999	0	-0.0866193	0.648312	4.73669	0.24575	0	0	0	0	0	0	0	0	0
0.218714	112.908	813.093	42.0059	0.0128692	0	-0.0867001	0.646233	4.65377	0.240423	0	0	0	0	0	0	0	0	0
0.219713	113.102	802.953	41.3055	0.0129489	0	-0.0867889	0.643853	4.57096	0.235139	0	0	0	0	0	0	0	0	0
0.220712	113.253	792.779	40.6079	0.0130389	0	-0.0868861	0.641173	4.48827	0.229899	0	0	0	0	0	0	0	0	0
0.221711	113.36	782.574	39.9133	0.0131392	0	-0.0869918	0.638199	4.40575	0.224705	0	0	0	0	0	0	0	0	0
0.222709	113.425	772.34	39.2221	0.0132497	0	-0.0871063	0.634933	4.32341	0.219558	0	0	0	0	0	0	0	0	0
0.223708	113.447	762.083	38.5342	0.0133704	0	-0.0872297	0.631379	4.24129	0.214458	0	0	0	0	0	0	0	0	0
0.224707	113.427	751.804	37.85	0.0135013	0	-0.0873623	0.627541	4.1594	0.209408	0	0	0	0	0	0	0	0	0
0.225705	113.364	741.507	37.1696	0.0136424	0	-0.0875042	0.623422	4.07777	0.204407	0	0	0	0	0	0	0	0	0
0.226704	113.259	731.196	36.4932	0.0137935	0	-0.0876557	0.619027	3.99642	0.199457	0	0	0	0	0	0	0	0	0
0.227703	113.112	720.873	35.8208	0.0139547	0	-0.0878169	0.614359	3.91538	0.194559	0	0	0	0	0	0	0	0	0
0.228701	112.923	710.543	35.1528	0.0141259	0	-0.0879881	0.609422	3.83465	0.189712	0	0	0	0	0	0	0	0	0
0.2297	112.693	700.208	34.4893	0.014307	0	-0.0881695	0.60422	3.75426	0.184919	0	0	0	0	0	0	0	0	0
0.230699	112.422	689.871	33.8303	0.014498	0	-0.0883612	0.598757	3.67422	0.180179	0	0	0	0	0	0	0	0	0
